<svg width="252" height="225" viewBox="0 0 252 225" fill="none" xmlns="http://www.w3.org/2000/svg">
<rect width="252" height="225" fill="#D6CD03"/>
<g filter="url(#filter0_d)">
<path d="M57.6733 126.924L69.27 121.431H69.8804V136.079C69.8804 138.887 72.3421 141.267 77.2656 143.22C80.6836 144.563 84.4271 145.234 88.4961 145.234C92.5651 145.234 96.3086 144.563 99.7266 143.22C104.65 141.267 107.112 138.887 107.112 136.079V118.318C107.112 115.47 104.65 113.089 99.7266 111.177C96.3086 109.834 92.5651 109.163 88.4961 109.163C83.3285 109.163 78.6898 108.369 74.5801 106.782C66.971 103.771 63.1665 99.5801 63.1665 94.209V76.5698C63.1665 71.1174 66.971 66.9263 74.5801 63.9966C78.6898 62.4097 83.3285 61.6162 88.4961 61.6162C93.6637 61.6162 98.3024 62.4097 102.412 63.9966C110.021 67.0076 113.826 71.1987 113.826 76.5698V84.3823L102.229 89.8755H101.619V78.7061C101.619 76.6715 100.337 75.1457 97.7734 74.1284C95.2507 73.1112 92.1582 72.6025 88.4961 72.6025C84.834 72.6025 81.7212 73.1112 79.1577 74.1284C76.6349 75.1457 75.3735 76.6715 75.3735 78.7061V92.0728C75.3735 94.1073 76.6349 95.6331 79.1577 96.6504C81.7212 97.6676 84.834 98.1763 88.4961 98.1763C94.6403 98.1763 100.296 99.2546 105.464 101.411C114.701 105.236 119.319 110.872 119.319 118.318V136.079C119.319 143.485 114.701 149.12 105.464 152.986C100.296 155.142 94.6403 156.221 88.4961 156.221C82.3519 156.221 76.696 155.142 71.5283 152.986C62.2917 149.161 57.6733 143.525 57.6733 136.079V126.924ZM141.292 157.441V65.8887L152.888 60.3955H153.499V106.355L186.641 60.3955H187.251L197.993 65.4614L170.771 101.716C176.427 101.716 181.921 102.835 187.251 105.073C196.488 108.939 201.106 114.574 201.106 121.98V151.948L189.509 157.441H188.899V121.98C188.899 119.172 186.437 116.792 181.514 114.839C177.648 113.415 174.067 112.703 170.771 112.703C167.435 112.703 164.159 113.333 160.945 114.595C155.981 116.507 153.499 118.969 153.499 121.98V151.948L141.902 157.441H141.292Z" fill="black"/>
<path d="M57.6733 126.924L57.2453 126.02L56.6733 126.291V126.924H57.6733ZM69.27 121.431V120.431H69.0452L68.8419 120.527L69.27 121.431ZM69.8804 121.431H70.8804V120.431H69.8804V121.431ZM77.2656 143.22L76.8969 144.15L76.9 144.151L77.2656 143.22ZM99.7266 143.22L100.092 144.151L100.095 144.15L99.7266 143.22ZM99.7266 111.177L99.3609 112.108L99.3645 112.109L99.7266 111.177ZM74.5801 106.782L74.2121 107.712L74.2199 107.715L74.5801 106.782ZM74.5801 63.9966L74.9394 64.9298L74.9403 64.9295L74.5801 63.9966ZM102.412 63.9966L102.78 63.0667L102.772 63.0637L102.412 63.9966ZM113.826 84.3823L114.254 85.2861L114.826 85.0152V84.3823H113.826ZM102.229 89.8755V90.8755H102.454L102.657 90.7792L102.229 89.8755ZM101.619 89.8755H100.619V90.8755H101.619V89.8755ZM97.7734 74.1284L97.3995 75.0559L97.4046 75.0579L97.7734 74.1284ZM79.1577 74.1284L78.7889 73.1989L78.7837 73.201L79.1577 74.1284ZM79.1577 96.6504L78.7837 97.5778L78.7889 97.5799L79.1577 96.6504ZM105.464 101.411L105.079 102.334L105.081 102.335L105.464 101.411ZM105.464 152.986L105.849 153.909L105.85 153.908L105.464 152.986ZM71.5283 152.986L71.9135 152.063L71.9109 152.062L71.5283 152.986ZM58.1014 127.828L69.6981 122.334L68.8419 120.527L57.2453 126.02L58.1014 127.828ZM69.27 122.431H69.8804V120.431H69.27V122.431ZM68.8804 121.431V136.079H70.8804V121.431H68.8804ZM68.8804 136.079C68.8804 139.576 71.9447 142.185 76.8969 144.15L77.6344 142.291C72.7395 140.349 70.8804 138.198 70.8804 136.079H68.8804ZM76.9 144.151C80.4464 145.544 84.3154 146.234 88.4961 146.234V144.234C84.5387 144.234 80.9208 143.582 77.6313 142.289L76.9 144.151ZM88.4961 146.234C92.6767 146.234 96.5458 145.544 100.092 144.151L99.3609 142.289C96.0714 143.582 92.4535 144.234 88.4961 144.234V146.234ZM100.095 144.15C105.047 142.185 108.112 139.576 108.112 136.079H106.112C106.112 138.198 104.253 140.349 99.3578 142.291L100.095 144.15ZM108.112 136.079V118.318H106.112V136.079H108.112ZM108.112 118.318C108.112 114.781 105.05 112.172 100.089 110.245L99.3645 112.109C104.25 114.007 106.112 116.158 106.112 118.318H108.112ZM100.092 110.246C96.5458 108.853 92.6767 108.163 88.4961 108.163V110.163C92.4535 110.163 96.0714 110.815 99.3609 112.108L100.092 110.246ZM88.4961 108.163C83.4307 108.163 78.9171 107.385 74.9403 105.849L74.2199 107.715C78.4625 109.353 83.2262 110.163 88.4961 110.163V108.163ZM74.948 105.852C67.4895 102.901 64.1665 98.9679 64.1665 94.209H62.1665C62.1665 100.192 66.4525 104.641 74.2121 107.712L74.948 105.852ZM64.1665 94.209V76.5698H62.1665V94.209H64.1665ZM64.1665 76.5698C64.1665 71.7278 67.4924 67.7971 74.9394 64.9298L74.2208 63.0634C66.4497 66.0554 62.1665 70.5069 62.1665 76.5698H64.1665ZM74.9403 64.9295C78.9171 63.3939 83.4307 62.6162 88.4961 62.6162V60.6162C83.2262 60.6162 78.4625 61.4255 74.2199 63.0637L74.9403 64.9295ZM88.4961 62.6162C93.5615 62.6162 98.0751 63.3939 102.052 64.9295L102.772 63.0637C98.5297 61.4255 93.766 60.6162 88.4961 60.6162V62.6162ZM102.044 64.9264C109.503 67.8779 112.826 71.8109 112.826 76.5698H114.826C114.826 70.5866 110.54 66.1374 102.78 63.0667L102.044 64.9264ZM112.826 76.5698V84.3823H114.826V76.5698H112.826ZM113.398 83.4786L101.801 88.9718L102.657 90.7792L114.254 85.2861L113.398 83.4786ZM102.229 88.8755H101.619V90.8755H102.229V88.8755ZM102.619 89.8755V78.7061H100.619V89.8755H102.619ZM102.619 78.7061C102.619 77.4589 102.219 76.3398 101.423 75.3926C100.643 74.4635 99.5219 73.7464 98.1423 73.1989L97.4046 75.0579C98.5885 75.5277 99.3903 76.0822 99.8916 76.679C100.378 77.2577 100.619 77.9187 100.619 78.7061H102.619ZM98.1474 73.201C95.4724 72.1223 92.2446 71.6025 88.4961 71.6025V73.6025C92.0718 73.6025 95.0289 74.1 97.3995 75.0559L98.1474 73.201ZM88.4961 71.6025C84.7468 71.6025 81.5013 72.1226 78.7889 73.1989L79.5266 75.0579C81.9411 74.0998 84.9212 73.6025 88.4961 73.6025V71.6025ZM78.7837 73.201C77.4229 73.7497 76.3178 74.4684 75.5488 75.3986C74.7656 76.3461 74.3735 77.4632 74.3735 78.7061H76.3735C76.3735 77.9144 76.6122 77.2513 77.0903 76.6729C77.5827 76.0772 78.3697 75.5244 79.5317 75.0559L78.7837 73.201ZM74.3735 78.7061V92.0728H76.3735V78.7061H74.3735ZM74.3735 92.0728C74.3735 93.3156 74.7656 94.4327 75.5488 95.3802C76.3178 96.3104 77.4229 97.0291 78.7837 97.5778L79.5317 95.7229C78.3697 95.2544 77.5827 94.7016 77.0903 94.1059C76.6122 93.5275 76.3735 92.8644 76.3735 92.0728H74.3735ZM78.7889 97.5799C81.5013 98.6562 84.7468 99.1763 88.4961 99.1763V97.1763C84.9212 97.1763 81.9411 96.679 79.5266 95.7209L78.7889 97.5799ZM88.4961 99.1763C94.521 99.1763 100.044 100.233 105.079 102.334L105.849 100.488C100.548 98.276 94.7596 97.1763 88.4961 97.1763V99.1763ZM105.081 102.335C109.601 104.207 112.908 106.488 115.082 109.14C117.241 111.775 118.319 114.82 118.319 118.318H120.319C120.319 114.369 119.088 110.873 116.629 107.873C114.183 104.889 110.563 102.44 105.846 100.487L105.081 102.335ZM118.319 118.318V136.079H120.319V118.318H118.319ZM118.319 136.079C118.319 139.555 117.242 142.59 115.082 145.226C112.908 147.879 109.599 150.171 105.078 152.063L105.85 153.908C110.565 151.935 114.184 149.476 116.629 146.494C119.087 143.494 120.319 140.009 120.319 136.079H118.319ZM105.079 152.063C100.044 154.164 94.521 155.221 88.4961 155.221V157.221C94.7596 157.221 100.548 156.121 105.849 153.909L105.079 152.063ZM88.4961 155.221C82.4712 155.221 76.9477 154.164 71.9135 152.063L71.1432 153.909C76.4442 156.121 82.2326 157.221 88.4961 157.221V155.221ZM71.9109 152.062C67.3909 150.19 64.0837 147.909 61.9105 145.257C59.7513 142.622 58.6733 139.577 58.6733 136.079H56.6733C56.6733 140.028 57.9045 143.524 60.3636 146.524C62.8088 149.508 66.4291 151.957 71.1457 153.91L71.9109 152.062ZM58.6733 136.079V126.924H56.6733V136.079H58.6733ZM141.292 157.441H140.292V158.441H141.292V157.441ZM141.292 65.8887L140.863 64.9849L140.292 65.2558V65.8887H141.292ZM152.888 60.3955V59.3955H152.663L152.46 59.4918L152.888 60.3955ZM153.499 60.3955H154.499V59.3955H153.499V60.3955ZM153.499 106.355H152.499V109.451L154.31 106.94L153.499 106.355ZM186.641 60.3955V59.3955H186.129L185.83 59.8106L186.641 60.3955ZM187.251 60.3955L187.678 59.491L187.475 59.3955H187.251V60.3955ZM197.993 65.4614L198.793 66.0619L199.53 65.0804L198.42 64.557L197.993 65.4614ZM170.771 101.716L169.972 101.116L168.77 102.716H170.771V101.716ZM187.251 105.073L186.864 105.995L186.865 105.996L187.251 105.073ZM201.106 151.948L201.534 152.852L202.106 152.581V151.948H201.106ZM189.509 157.441V158.441H189.734L189.937 158.345L189.509 157.441ZM188.899 157.441H187.899V158.441H188.899V157.441ZM181.514 114.839L181.882 113.909L181.871 113.905L181.859 113.901L181.514 114.839ZM160.945 114.595L161.304 115.528L161.31 115.526L160.945 114.595ZM153.499 151.948L153.927 152.852L154.499 152.581V151.948H153.499ZM141.902 157.441V158.441H142.127L142.33 158.345L141.902 157.441ZM142.292 157.441V65.8887H140.292V157.441H142.292ZM141.72 66.7924L153.316 61.2992L152.46 59.4918L140.863 64.9849L141.72 66.7924ZM152.888 61.3955H153.499V59.3955H152.888V61.3955ZM152.499 60.3955V106.355H154.499V60.3955H152.499ZM154.31 106.94L187.452 60.9804L185.83 59.8106L152.687 105.77L154.31 106.94ZM186.641 61.3955H187.251V59.3955H186.641V61.3955ZM186.824 61.3L197.567 66.3659L198.42 64.557L187.678 59.491L186.824 61.3ZM197.193 64.861L169.972 101.116L171.571 102.317L198.793 66.0619L197.193 64.861ZM170.771 102.716C176.291 102.716 181.653 103.808 186.864 105.995L187.638 104.151C182.188 101.863 176.563 100.716 170.771 100.716V102.716ZM186.865 105.996C191.386 107.888 194.695 110.18 196.869 112.833C199.029 115.469 200.106 118.504 200.106 121.98H202.106C202.106 118.05 200.874 114.565 198.416 111.565C195.971 108.583 192.353 106.124 187.637 104.151L186.865 105.996ZM200.106 121.98V151.948H202.106V121.98H200.106ZM200.678 151.045L189.081 156.538L189.937 158.345L201.534 152.852L200.678 151.045ZM189.509 156.441H188.899V158.441H189.509V156.441ZM189.899 157.441V121.98H187.899V157.441H189.899ZM189.899 121.98C189.899 118.483 186.835 115.874 181.882 113.909L181.145 115.768C186.04 117.71 187.899 119.861 187.899 121.98H189.899ZM181.859 113.901C177.91 112.445 174.211 111.703 170.771 111.703V113.703C173.924 113.703 177.387 114.384 181.168 115.777L181.859 113.901ZM170.771 111.703C167.306 111.703 163.906 112.358 160.58 113.664L161.31 115.526C164.412 114.308 167.564 113.703 170.771 113.703V111.703ZM160.585 113.662C155.556 115.599 152.499 118.295 152.499 121.98H154.499C154.499 119.643 156.405 117.415 161.304 115.528L160.585 113.662ZM152.499 121.98V151.948H154.499V121.98H152.499ZM153.07 151.045L141.474 156.538L142.33 158.345L153.927 152.852L153.07 151.045ZM141.902 156.441H141.292V158.441H141.902V156.441Z" fill="black"/>
</g>
<defs>
<filter id="filter0_d" x="52.6733" y="59.3955" width="153.433" height="107.046" filterUnits="userSpaceOnUse" color-interpolation-filters="sRGB">
<feFlood flood-opacity="0" result="BackgroundImageFix"/>
<feColorMatrix in="SourceAlpha" type="matrix" values="0 0 0 0 0 0 0 0 0 0 0 0 0 0 0 0 0 0 127 0"/>
<feOffset dy="4"/>
<feGaussianBlur stdDeviation="2"/>
<feColorMatrix type="matrix" values="0 0 0 0 0 0 0 0 0 0 0 0 0 0 0 0 0 0 0.25 0"/>
<feBlend mode="normal" in2="BackgroundImageFix" result="effect1_dropShadow"/>
<feBlend mode="normal" in="SourceGraphic" in2="effect1_dropShadow" result="shape"/>
</filter>
</defs>
</svg>
